<?xml version="1.0" standalone="no"?><!DOCTYPE svg PUBLIC "-//W3C//DTD SVG 1.1//EN" "http://www.w3.org/Graphics/SVG/1.1/DTD/svg11.dtd"><svg t="1643550230683" class="icon" viewBox="0 0 4715 1024" version="1.1" xmlns="http://www.w3.org/2000/svg" p-id="2067" xmlns:xlink="http://www.w3.org/1999/xlink" width="920.8984375" height="200"><defs><style type="text/css"></style></defs><path d="M32.336842 16.168421h468.884211V485.052632H32.336842z" fill="#F45325" p-id="2068"></path><path d="M552.421053 16.168421h468.88421V485.052632H552.421053z" fill="#81BD06" p-id="2069"></path><path d="M32.336842 538.947368h468.884211v468.884211H32.336842z" fill="#04A6EF" p-id="2070"></path><path d="M552.421053 538.947368h468.88421v468.884211H552.421053z" fill="#FFBA07" p-id="2071"></path><path d="M1643.789474 654.821053L1468.631579 215.578947h-145.51579v592.842106h97.010527V350.315789l188.631579 458.105264h70.063158l183.242105-458.105264v458.105264H1967.157895V215.578947h-142.821053zM2061.473684 382.652632h102.4v428.463157h-102.4zM2398.315789 382.652632c-83.536842 24.252632-177.852632 83.536842-161.68421 253.305263s188.631579 185.936842 229.052632 183.242105c40.421053-2.694737 102.4-32.336842 102.4-32.336842v-88.926316s-48.505263 48.505263-126.652632 35.031579c-78.147368-10.778947-102.4-86.231579-102.4-115.873684s-5.389474-142.821053 105.094737-161.684211c88.926316-16.168421 121.263158 35.031579 121.263158 35.031579v-94.315789c-2.694737 0-86.231579-40.421053-167.073685-13.473684zM2740.547368 452.715789v-72.757894H2640.842105V808.421053h102.4v-212.884211c0-59.284211 8.084211-110.484211 61.978948-126.652631 53.894737-16.168421 83.536842 16.168421 83.536842 16.168421v-105.094737c-107.789474-24.252632-148.210526 72.757895-148.210527 72.757894zM3120.505263 371.873684c-134.736842-2.694737-194.021053 97.010526-194.021052 97.010527-91.621053 220.968421 43.115789 347.621053 177.852631 347.621052s226.357895-80.842105 229.052632-223.663158c0-137.431579-78.147368-218.273684-212.884211-220.968421z m56.589474 347.621053c-40.421053 21.557895-142.821053 32.336842-169.768421-61.978948s8.084211-158.989474 37.726316-183.242105c0 0 32.336842-24.252632 80.842105-18.863158 48.505263 5.389474 94.315789 24.252632 102.4 102.4s-10.778947 140.126316-51.2 161.684211zM3926.231579 371.873684c-134.736842-2.694737-194.021053 97.010526-194.021053 97.010527-91.621053 220.968421 43.115789 347.621053 177.852632 347.621052s226.357895-80.842105 229.052631-223.663158c0-137.431579-78.147368-218.273684-212.88421-220.968421z m56.589474 347.621053c-40.421053 21.557895-142.821053 32.336842-169.768421-61.978948s8.084211-158.989474 37.726315-183.242105c0 0 32.336842-24.252632 80.842106-18.863158 48.505263 5.389474 94.315789 24.252632 102.4 102.4s-13.473684 140.126316-51.2 161.684211zM3530.105263 547.031579c-24.252632-8.084211-72.757895-37.726316-35.031579-86.231579 26.947368-32.336842 145.515789 18.863158 145.51579 18.863158v-91.621053s-75.452632-32.336842-169.768421-8.08421c-94.315789 24.252632-123.957895 150.905263-61.978948 202.105263s164.378947 64.673684 150.905263 121.263158-118.568421 35.031579-183.242105-5.389474v99.705263s97.010526 35.031579 177.852632 13.473684 115.873684-78.147368 107.789473-145.515789c-2.694737-70.063158-110.484211-110.484211-132.042105-118.568421zM4683.452632 463.494737v-80.842105H4581.052632V253.305263l-99.705264 32.336842v94.31579h-153.6v-75.452632s10.778947-78.147368 110.484211-40.421052V175.157895s-75.452632-18.863158-137.431579 16.168421-67.368421 88.926316-70.063158 113.178947c-2.694737 24.252632 0 78.147368 0 78.147369h-72.757895v83.536842h70.063158V808.421053h102.4V466.189474h148.210527v245.221052s13.473684 67.368421 45.810526 88.926316c32.336842 21.557895 105.094737 35.031579 158.989474 5.389474V727.578947s-43.115789 18.863158-64.673685 13.473685c-24.252632-5.389474-37.726316-26.947368-37.726315-67.368421v-202.105264h102.4z" fill="#777777" p-id="2072"></path><path d="M2054.100669 268.060489a59.284211 59.284211 0 1 0 117.038884-18.983416 59.284211 59.284211 0 1 0-117.038884 18.983416Z" fill="#777777" p-id="2073"></path></svg>