<?xml version="1.0" standalone="no"?><!DOCTYPE svg PUBLIC "-//W3C//DTD SVG 1.1//EN" "http://www.w3.org/Graphics/SVG/1.1/DTD/svg11.dtd"><svg t="1643550953484" class="icon" viewBox="0 0 4715 1024" version="1.1" xmlns="http://www.w3.org/2000/svg" p-id="3442" xmlns:xlink="http://www.w3.org/1999/xlink" width="920.8984375" height="200"><defs><style type="text/css"></style></defs><path d="M32.337 16.168H501.22v468.885H32.337z" fill="#F45325" p-id="3443"></path><path d="M552.421 16.168h468.884v468.885H552.421z" fill="#81BD06" p-id="3444"></path><path d="M32.337 538.947H501.22v468.885H32.337z" fill="#04A6EF" p-id="3445"></path><path d="M552.421 538.947h468.884v468.885H552.421z" fill="#FFBA07" p-id="3446"></path><path d="M1643.79 654.821L1468.631 215.58h-145.516V808.42h97.01V350.316l188.632 458.105h70.063l183.242-458.105V808.42h105.095V215.58h-142.821z m417.684-272.168h102.4v428.463h-102.4z m336.842 0c-83.537 24.252-177.853 83.536-161.684 253.305s188.631 185.937 229.052 183.242c40.421-2.695 102.4-32.337 102.4-32.337v-88.926s-48.505 48.505-126.652 35.031c-78.148-10.779-102.4-86.231-102.4-115.873s-5.39-142.821 105.094-161.684c88.927-16.169 121.263 35.031 121.263 35.031v-94.316c-2.694 0-86.231-40.42-167.073-13.473z m342.231 70.063v-72.758h-99.705V808.42h102.4V595.537c0-59.284 8.084-110.484 61.98-126.653 53.894-16.168 83.536 16.169 83.536 16.169V379.958c-107.79-24.253-148.21 72.758-148.21 72.758z m379.958-80.842c-134.737-2.695-194.02 97.01-194.02 97.01-91.622 220.969 43.115 347.621 177.852 347.621s226.358-80.842 229.052-223.663c0-137.431-78.147-218.274-212.884-220.968z m56.59 347.62c-40.421 21.559-142.821 32.338-169.769-61.978s8.085-158.99 37.727-183.242c0 0 32.336-24.253 80.842-18.863 48.505 5.389 94.316 24.252 102.4 102.4s-10.78 140.126-51.2 161.684z m749.137-347.62c-134.737-2.695-194.021 97.01-194.021 97.01-91.622 220.969 43.115 347.621 177.852 347.621s226.358-80.842 229.053-223.663c0-137.431-78.148-218.274-212.884-220.968z m56.59 347.62c-40.422 21.559-142.822 32.338-169.77-61.978s8.085-158.99 37.727-183.242c0 0 32.337-24.253 80.842-18.863 48.505 5.389 94.316 24.252 102.4 102.4s-13.474 140.126-51.2 161.684z m-452.717-172.462c-24.252-8.085-72.758-37.727-35.031-86.232 26.947-32.337 145.515 18.863 145.515 18.863v-91.62s-75.452-32.338-169.768-8.085-123.958 150.905-61.979 202.105 164.38 64.674 150.905 121.263-118.568 35.032-183.242-5.39v99.706s97.01 35.032 177.853 13.474 115.874-78.148 107.79-145.516c-2.695-70.063-110.485-110.484-132.043-118.568z m1153.348-83.537v-80.842h-102.4V253.305l-99.706 32.337v94.316h-153.6v-75.453s10.78-78.147 110.485-40.42v-88.927s-75.453-18.863-137.432 16.168-67.368 88.927-70.063 113.18c-2.695 24.252 0 78.147 0 78.147h-72.758v83.536h70.063v342.232h102.4V466.19h148.21v245.222s13.474 67.368 45.811 88.926c32.337 21.558 105.095 35.031 158.99 5.39v-78.148s-43.116 18.863-64.674 13.474c-24.253-5.39-37.726-26.948-37.726-67.369V471.58h102.4zM2054.1 268.06a59.284 59.284 0 1 0 117.04-18.983 59.284 59.284 0 1 0-117.04 18.983z" fill="#777777" p-id="3447"></path></svg>