<?xml version="1.0" standalone="no"?><!DOCTYPE svg PUBLIC "-//W3C//DTD SVG 1.1//EN" "http://www.w3.org/Graphics/SVG/1.1/DTD/svg11.dtd"><svg t="1643367498094" class="icon" viewBox="0 0 1024 1024" version="1.1" xmlns="http://www.w3.org/2000/svg" p-id="7769" xmlns:xlink="http://www.w3.org/1999/xlink" width="200" height="200"><defs><style type="text/css"></style></defs><path d="M512 0a409.6 409.6 0 0 0-409.6 409.6c0 282.112 361.472 589.312 376.832 602.112a51.2 51.2 0 0 0 66.048 0C560.128 998.912 921.6 691.712 921.6 409.6a409.6 409.6 0 0 0-409.6-409.6z m0 904.192C402.944 803.84 204.8 584.704 204.8 409.6a307.2 307.2 0 0 1 614.4 0c0 190.464-222.208 415.232-307.2 494.592z" fill="#FFFFFF" p-id="7770"></path><path d="M512 358.4m-102.4 0a102.4 102.4 0 1 0 204.8 0 102.4 102.4 0 1 0-204.8 0Z" fill="#FFFFFF" p-id="7771"></path></svg>