<?xml version="1.0" standalone="no"?><!DOCTYPE svg PUBLIC "-//W3C//DTD SVG 1.1//EN" "http://www.w3.org/Graphics/SVG/1.1/DTD/svg11.dtd"><svg t="1634892895571" class="icon" viewBox="0 0 1024 1024" version="1.1" xmlns="http://www.w3.org/2000/svg" p-id="12870" xmlns:xlink="http://www.w3.org/1999/xlink" width="200" height="200"><defs><style type="text/css"></style></defs><path d="M512.779422 657.591715a236.675051 236.675051 0 0 0 237.959538-237.136149V237.959538a237.959538 237.959538 0 0 0-475.919077 0v182.660706a236.675051 236.675051 0 0 0 237.959539 236.971471z m-164.677881-419.730984a164.809623 164.809623 0 0 1 329.652182 0v182.660706a164.809623 164.809623 0 0 1-329.652182 0z" p-id="12871" fill="#008090"></path><path d="M893.745232 474.898073a37.250137 37.250137 0 0 0-74.236789-4.347496 312.459812 312.459812 0 0 1-615.631791 0A37.250137 37.250137 0 0 0 129.639864 474.898073v5.43437a389.792544 389.792544 0 0 0 344.934289 321.846451v184.834454a37.118394 37.118394 0 0 0 74.236789 0v-184.834454a384.226432 384.226432 0 0 0 342.760542-319.672702 20.123637 20.123637 0 0 0 2.173748-7.608119z" p-id="12872" fill="#008090"></path></svg>